<svg xmlns="http://www.w3.org/2000/svg" width="1381pt" height="1070pt" viewBox="0 0 1381 1070"><g fill="#0093dd"><path d="M269 0h184c6 1 11 6 12 12 2 6 0 11-2 17l-33 142-3 2h-1l-1 1-6 2-2 1-1 1-6 2-1 1h-1l-1 1h-1l-2 1-1 1-8 3-1 1-2 1h-1l-1 1h-1l-1 1h-2l-1 1h-1l-1 1-2 1-3 1-1 1a237 237 0 0 0-9 4l-1 1-1 1-8 3-3 2-13 6-1 1-1 1-2 1h-1l-1 1h-1l-1 1-10 5-1 1-14 7-20 12 20-10 21-10 1-1h1l1-1h2l1-1h1l10-5 1-1 10-4 1-1h2l1-1a397 397 0 0 1 11-5l10-4 2-1 1-1h2l1-1 3-1 2-1 5-2 2-1h2l1-1 2-1h1l2-1 1-1 3-1h2l1-1 2-1h1l2-1 3-1 2-1 2-1-1 3-25 110-2 12c-2 6 0 13 4 17 4 3 9 4 14 4h210c4 0 9 0 12 2 5 2 9 7 10 12 1 6-1 12-3 18l-69 296c-2 11-10 19-20 22-5 2-10 1-15 1H272l-1-9c25-5 50-14 71-29 16-13 28-31 33-51l51-216c1-7-1-15-7-19-5-3-11-2-16-2H247c-28 25-56 51-80 80-25 28-47 59-64 92-20 39-35 82-35 126-1 42 13 85 38 118 22 31 53 55 87 74 36 19 75 33 115 42l-1 3-10 46c-27-4-53-9-78-16-36-10-70-23-102-42-33-19-63-44-84-75C9 763-2 720 1 677s18-85 39-122c19-35 43-67 70-96 35-40 76-76 119-108h-38c-6 0-12-4-15-9-2-5-2-11 0-16l70-304c3-11 12-19 23-22ZM1172 698l16-10-55 37a1394 1394 0 0 1-619 211l1-3 7-31a1426 1426 0 0 0 650-204Z"/></g><path fill="#eb891b" d="M786 0h282v9c-16 3-31 8-46 15-14 7-28 17-38 29 58 2 116 8 173 23 41 11 82 26 119 49 32 21 60 47 79 80 15 25 23 53 26 81v32c-3 39-16 77-34 112-19 36-43 69-70 100a892 892 0 0 1-174 148l-5 3 2-2c45-35 88-73 126-116 27-31 50-64 69-100 18-36 32-76 33-117a197 197 0 0 0-77-168c-31-25-67-43-104-57-58-21-119-31-180-35l-37 161-14 60c-1 6 2 13 8 17a734790 734790 0 0 1 225 2c5 0 10 1 14 5 4 5 5 12 4 18l-71 302c-2 14-14 27-29 26H894c-5 0-10-1-14-5-4-5-5-11-3-17l66-283c1-7-1-15-7-19-5-3-11-2-17-2H710c-5 0-10-2-14-5-4-5-5-12-4-18l54-232c-109 15-216 44-318 84l-2 1-2 1-3 1h-1l-1 1h-1l-2 1-1 1h-2l-3 1-1 1-2 1h-1l-2 1-1 1h-2l-2 1-5 2h-1l-1 1-3 1-1 1h-2l-1 1-2 1-10 4h-1l-1 1a189 189 0 0 0-7 3h-1l-1 1-1 1h-2l-1 1-10 4-1 1-10 5h-1l-1 1h-2l-1 1h-1l-1 1-21 10h-2l2-2 14-7 1-1 10-5 1-1h1l1-1h1l2-1 1-1 1-1 13-6c1 1 3 0 3-2l8-3 1-1 1-1a114 114 0 0 0 9-4l1-1 3-1h1l1-1 1-1h1l1-1h2l1-1h1l1-1h1l2-1 1-1 8-3 1-1 2-1h1l1-1h1l1-1a184 184 0 0 1 7-3l2-1 6-2 1-1h1c104-46 213-80 325-100l11-51c3-11 12-19 23-22Z"/><g fill="#68b92e"><path d="M425 174ZM417 177ZM416 178ZM409 181l1-1-1 1ZM407 182ZM424 182l2-1-2 1ZM404 183l2-1-2 1ZM403 184ZM419 184l1-1h1l-2 1ZM416 185l2-1-2 1ZM414 186h1-1ZM410 187l3-1-3 1ZM394 188l1-1-1 1ZM409 188l1-1-1 1ZM392 189ZM407 189l2-1-2 1ZM390 190l1-1-1 1ZM404 190ZM388 191ZM402 191ZM386 191h1-1ZM399 192l2-1-2 1ZM384 192ZM381 194l2-1-1 1h-1ZM392 195l1-1h1l-2 1ZM377 196l1-1-1 1ZM388 197ZM373 198ZM385 198l1-1-1 1ZM383 199ZM367 201l1-1-1 1ZM366 202ZM371 204l1-1h1l-2 1ZM355 207l3-2c0 2-2 3-3 2ZM367 206ZM362 208l1-1h1l-2 1ZM360 209ZM358 210l1-1-1 1ZM341 214ZM340 215ZM347 215l1-1-1 1ZM338 216ZM336 217l1-1-1 1ZM334 218l1-1-1 1ZM336 220h1-1ZM334 221h1-1ZM332 222ZM330 223l1-1-1 1ZM323 224l1-1-1 1ZM289 243l20-12-2 2h2l-20 10ZM676 415c2-13 15-24 28-23h173c6 0 12 2 15 8 3 4 3 10 2 15l-71 305c-3 13-15 23-28 23H590c-6 0-12-1-18 2-8 3-16 11-18 20l-32 137-7 31-26 111c-2 14-14 25-28 25H287c-5 1-10-1-14-5-4-5-5-11-3-17l27-115 10-46 34-144c2-13 15-24 28-24h213c10 1 20-6 25-15 3-4 3-8 4-12l65-276Z"/></g></svg>